<svg width="600" height="200" viewBox="0 0 600 200" fill="none" xmlns="http://www.w3.org/2000/svg">
<rect width="600" height="200" fill="#1E1E1E"/>
<rect width="600" height="200" fill="white"/>
<path d="M76.0455 123V76.4545H85.8864V114.886H105.841V123H76.0455ZM112.176 123V88.0909H121.858V123H112.176ZM117.04 83.5909C115.6 83.5909 114.366 83.1136 113.335 82.1591C112.32 81.1894 111.812 80.0303 111.812 78.6818C111.812 77.3485 112.32 76.2045 113.335 75.25C114.366 74.2803 115.6 73.7955 117.04 73.7955C118.479 73.7955 119.706 74.2803 120.722 75.25C121.752 76.2045 122.267 77.3485 122.267 78.6818C122.267 80.0303 121.752 81.1894 120.722 82.1591C119.706 83.1136 118.479 83.5909 117.04 83.5909ZM142.477 123.568C139.826 123.568 137.424 122.886 135.273 121.523C133.136 120.144 131.439 118.121 130.182 115.455C128.939 112.773 128.318 109.485 128.318 105.591C128.318 101.591 128.962 98.2652 130.25 95.6136C131.538 92.947 133.25 90.9545 135.386 89.6364C137.538 88.303 139.894 87.6364 142.455 87.6364C144.409 87.6364 146.038 87.9697 147.341 88.6364C148.659 89.2879 149.72 90.1061 150.523 91.0909C151.341 92.0606 151.962 93.0152 152.386 93.9545H152.682V76.4545H162.341V123H152.795V117.409H152.386C151.932 118.379 151.288 119.341 150.455 120.295C149.636 121.235 148.568 122.015 147.25 122.636C145.947 123.258 144.356 123.568 142.477 123.568ZM145.545 115.864C147.106 115.864 148.424 115.439 149.5 114.591C150.591 113.727 151.424 112.523 152 110.977C152.591 109.432 152.886 107.621 152.886 105.545C152.886 103.47 152.598 101.667 152.023 100.136C151.447 98.6061 150.614 97.4242 149.523 96.5909C148.432 95.7576 147.106 95.3409 145.545 95.3409C143.955 95.3409 142.614 95.7727 141.523 96.6364C140.432 97.5 139.606 98.697 139.045 100.227C138.485 101.758 138.205 103.53 138.205 105.545C138.205 107.576 138.485 109.371 139.045 110.932C139.621 112.477 140.447 113.689 141.523 114.568C142.614 115.432 143.955 115.864 145.545 115.864ZM186.21 123.682C182.619 123.682 179.528 122.955 176.938 121.5C174.362 120.03 172.377 117.955 170.983 115.273C169.589 112.576 168.892 109.386 168.892 105.705C168.892 102.114 169.589 98.9621 170.983 96.25C172.377 93.5379 174.339 91.4242 176.869 89.9091C179.415 88.3939 182.4 87.6364 185.824 87.6364C188.127 87.6364 190.271 88.0076 192.256 88.75C194.256 89.4773 195.998 90.5758 197.483 92.0455C198.983 93.5152 200.15 95.3636 200.983 97.5909C201.816 99.803 202.233 102.394 202.233 105.364V108.023H172.756V102.023H193.119C193.119 100.629 192.816 99.3939 192.21 98.3182C191.604 97.2424 190.763 96.4015 189.688 95.7955C188.627 95.1742 187.392 94.8636 185.983 94.8636C184.513 94.8636 183.21 95.2045 182.074 95.8864C180.953 96.553 180.074 97.4545 179.438 98.5909C178.801 99.7121 178.475 100.962 178.46 102.341V108.045C178.46 109.773 178.778 111.265 179.415 112.523C180.066 113.78 180.983 114.75 182.165 115.432C183.347 116.114 184.748 116.455 186.369 116.455C187.445 116.455 188.43 116.303 189.324 116C190.218 115.697 190.983 115.242 191.619 114.636C192.256 114.03 192.741 113.288 193.074 112.409L202.028 113C201.574 115.152 200.642 117.03 199.233 118.636C197.839 120.227 196.036 121.47 193.824 122.364C191.627 123.242 189.089 123.682 186.21 123.682ZM218.233 102.818V123H208.551V88.0909H217.778V94.25H218.188C218.96 92.2197 220.256 90.6136 222.074 89.4318C223.892 88.2348 226.097 87.6364 228.688 87.6364C231.112 87.6364 233.225 88.1667 235.028 89.2273C236.831 90.2879 238.233 91.803 239.233 93.7727C240.233 95.7273 240.733 98.0606 240.733 100.773V123H231.051V102.5C231.066 100.364 230.521 98.697 229.415 97.5C228.309 96.2879 226.786 95.6818 224.847 95.6818C223.544 95.6818 222.392 95.9621 221.392 96.5227C220.407 97.0833 219.634 97.9015 219.074 98.9773C218.528 100.038 218.248 101.318 218.233 102.818ZM264.136 123.682C260.561 123.682 257.485 122.924 254.909 121.409C252.348 119.879 250.379 117.758 249 115.045C247.636 112.333 246.955 109.212 246.955 105.682C246.955 102.106 247.644 98.9697 249.023 96.2727C250.417 93.5606 252.394 91.447 254.955 89.9318C257.515 88.4015 260.561 87.6364 264.091 87.6364C267.136 87.6364 269.803 88.1894 272.091 89.2955C274.379 90.4015 276.189 91.9545 277.523 93.9545C278.856 95.9545 279.591 98.303 279.727 101H270.591C270.333 99.2576 269.652 97.8561 268.545 96.7955C267.455 95.7197 266.023 95.1818 264.25 95.1818C262.75 95.1818 261.439 95.5909 260.318 96.4091C259.212 97.2121 258.348 98.3864 257.727 99.9318C257.106 101.477 256.795 103.348 256.795 105.545C256.795 107.773 257.098 109.667 257.705 111.227C258.326 112.788 259.197 113.977 260.318 114.795C261.439 115.614 262.75 116.023 264.25 116.023C265.356 116.023 266.348 115.795 267.227 115.341C268.121 114.886 268.856 114.227 269.432 113.364C270.023 112.485 270.409 111.432 270.591 110.205H279.727C279.576 112.871 278.848 115.22 277.545 117.25C276.258 119.265 274.477 120.841 272.205 121.977C269.932 123.114 267.242 123.682 264.136 123.682ZM291.903 136.091C290.676 136.091 289.525 135.992 288.449 135.795C287.388 135.614 286.509 135.379 285.812 135.091L287.994 127.864C289.131 128.212 290.153 128.402 291.062 128.432C291.987 128.462 292.782 128.25 293.449 127.795C294.131 127.341 294.684 126.568 295.108 125.477L295.676 124L283.153 88.0909H293.335L300.562 113.727H300.926L308.222 88.0909H318.472L304.903 126.773C304.252 128.652 303.366 130.288 302.244 131.682C301.138 133.091 299.737 134.174 298.04 134.932C296.343 135.705 294.297 136.091 291.903 136.091ZM369.284 91.5C368.966 90.3939 368.519 89.4167 367.943 88.5682C367.367 87.7045 366.663 86.9773 365.83 86.3864C365.011 85.7803 364.072 85.3182 363.011 85C361.966 84.6818 360.807 84.5227 359.534 84.5227C357.155 84.5227 355.064 85.1136 353.261 86.2955C351.473 87.4773 350.08 89.197 349.08 91.4545C348.08 93.697 347.58 96.4394 347.58 99.6818C347.58 102.924 348.072 105.682 349.057 107.955C350.042 110.227 351.436 111.962 353.239 113.159C355.042 114.341 357.17 114.932 359.625 114.932C361.852 114.932 363.754 114.538 365.33 113.75C366.92 112.947 368.133 111.818 368.966 110.364C369.814 108.909 370.239 107.189 370.239 105.205L372.239 105.5H360.239V98.0909H379.716V103.955C379.716 108.045 378.852 111.561 377.125 114.5C375.398 117.424 373.019 119.682 369.989 121.273C366.958 122.848 363.489 123.636 359.58 123.636C355.216 123.636 351.383 122.674 348.08 120.75C344.777 118.811 342.201 116.061 340.352 112.5C338.519 108.924 337.602 104.682 337.602 99.7727C337.602 96 338.148 92.6364 339.239 89.6818C340.345 86.7121 341.89 84.197 343.875 82.1364C345.86 80.0758 348.17 78.5076 350.807 77.4318C353.443 76.3561 356.299 75.8182 359.375 75.8182C362.011 75.8182 364.466 76.2045 366.739 76.9773C369.011 77.7348 371.027 78.8106 372.784 80.2045C374.557 81.5985 376.004 83.2576 377.125 85.1818C378.246 87.0909 378.966 89.197 379.284 91.5H369.284ZM386.926 123V88.0909H396.312V94.1818H396.676C397.313 92.0152 398.381 90.3788 399.881 89.2727C401.381 88.1515 403.108 87.5909 405.062 87.5909C405.547 87.5909 406.07 87.6212 406.631 87.6818C407.191 87.7424 407.684 87.8258 408.108 87.9318V96.5227C407.653 96.3864 407.025 96.2652 406.222 96.1591C405.419 96.053 404.684 96 404.017 96C402.593 96 401.32 96.3106 400.199 96.9318C399.093 97.5379 398.214 98.3864 397.562 99.4773C396.926 100.568 396.608 101.826 396.608 103.25V123H386.926ZM427.261 123.682C423.731 123.682 420.678 122.932 418.102 121.432C415.542 119.917 413.564 117.811 412.17 115.114C410.777 112.402 410.08 109.258 410.08 105.682C410.08 102.076 410.777 98.9242 412.17 96.2273C413.564 93.5152 415.542 91.4091 418.102 89.9091C420.678 88.3939 423.731 87.6364 427.261 87.6364C430.792 87.6364 433.837 88.3939 436.398 89.9091C438.973 91.4091 440.958 93.5152 442.352 96.2273C443.746 98.9242 444.443 102.076 444.443 105.682C444.443 109.258 443.746 112.402 442.352 115.114C440.958 117.811 438.973 119.917 436.398 121.432C433.837 122.932 430.792 123.682 427.261 123.682ZM427.307 116.182C428.913 116.182 430.254 115.727 431.33 114.818C432.405 113.894 433.216 112.636 433.761 111.045C434.322 109.455 434.602 107.644 434.602 105.614C434.602 103.583 434.322 101.773 433.761 100.182C433.216 98.5909 432.405 97.3333 431.33 96.4091C430.254 95.4848 428.913 95.0227 427.307 95.0227C425.686 95.0227 424.322 95.4848 423.216 96.4091C422.125 97.3333 421.299 98.5909 420.739 100.182C420.193 101.773 419.92 103.583 419.92 105.614C419.92 107.644 420.193 109.455 420.739 111.045C421.299 112.636 422.125 113.894 423.216 114.818C424.322 115.727 425.686 116.182 427.307 116.182ZM473.125 108.136V88.0909H482.807V123H473.511V116.659H473.148C472.36 118.705 471.049 120.348 469.216 121.591C467.398 122.833 465.178 123.455 462.557 123.455C460.223 123.455 458.17 122.924 456.398 121.864C454.625 120.803 453.239 119.295 452.239 117.341C451.254 115.386 450.754 113.045 450.739 110.318V88.0909H460.42V108.591C460.436 110.652 460.989 112.28 462.08 113.477C463.17 114.674 464.633 115.273 466.466 115.273C467.633 115.273 468.723 115.008 469.739 114.477C470.754 113.932 471.572 113.129 472.193 112.068C472.83 111.008 473.14 109.697 473.125 108.136ZM490.551 136.091V88.0909H500.097V93.9545H500.528C500.953 93.0152 501.566 92.0606 502.369 91.0909C503.188 90.1061 504.248 89.2879 505.551 88.6364C506.869 87.9697 508.506 87.6364 510.46 87.6364C513.006 87.6364 515.354 88.303 517.506 89.6364C519.657 90.9545 521.377 92.947 522.665 95.6136C523.953 98.2652 524.597 101.591 524.597 105.591C524.597 109.485 523.968 112.773 522.71 115.455C521.468 118.121 519.771 120.144 517.619 121.523C515.483 122.886 513.089 123.568 510.438 123.568C508.559 123.568 506.96 123.258 505.642 122.636C504.339 122.015 503.271 121.235 502.438 120.295C501.604 119.341 500.968 118.379 500.528 117.409H500.233V136.091H490.551ZM500.028 105.545C500.028 107.621 500.316 109.432 500.892 110.977C501.468 112.523 502.301 113.727 503.392 114.591C504.483 115.439 505.809 115.864 507.369 115.864C508.945 115.864 510.278 115.432 511.369 114.568C512.46 113.689 513.286 112.477 513.847 110.932C514.422 109.371 514.71 107.576 514.71 105.545C514.71 103.53 514.43 101.758 513.869 100.227C513.309 98.697 512.483 97.5 511.392 96.6364C510.301 95.7727 508.96 95.3409 507.369 95.3409C505.794 95.3409 504.46 95.7576 503.369 96.5909C502.294 97.4242 501.468 98.6061 500.892 100.136C500.316 101.667 500.028 103.47 500.028 105.545Z" fill="black"/>
<path d="M528.852 55.5881V52.5455H543.188V55.5881H537.844V70H534.196V55.5881H528.852ZM545.548 52.5455H550.099L554.906 64.2727H555.111L559.918 52.5455H564.469V70H560.889V58.6392H560.744L556.227 69.9148H553.79L549.273 58.5966H549.128V70H545.548V52.5455Z" fill="black"/>
</svg>
